<svg width="20" height="20" viewBox="0 0 20 20" fill="currentColor"
    xmlns="http://www.w3.org/2000/svg">
    <path
        d="M10.2 0.800003C8.9875 0.800003 8 1.7875 8 3C8 4.2125 8.9875 5.2 10.2 5.2C11.4125 5.2 12.4 4.2125 12.4 3C12.4 1.7875 11.4125 0.800003 10.2 0.800003ZM8.2 5.6C6.9875 5.6 6 6.5875 6 7.8V12.8C6 13.2422 6.35938 13.6 6.8 13.6C7.24063 13.6 7.6 13.2422 7.6 12.8V8.9875C7.6 8.87969 7.69219 8.7875 7.8 8.7875C7.90781 8.7875 8 8.87969 8 8.9875V18.125C8 18.75 8.33594 19.2 8.9625 19.2C9.55469 19.2 10 18.7406 10 18.125V12.9875C10 12.8766 10.0891 12.7875 10.2 12.7875C10.3109 12.7875 10.4 12.8766 10.4 12.9875V18.2375C10.4016 18.2406 10.4109 18.2344 10.4125 18.2375C10.4672 18.7906 10.8844 19.2 11.4375 19.2C12.0625 19.2 12.4 18.75 12.4 18.125V9.0625C12.4 8.95469 12.4922 8.8625 12.6 8.8625C12.7078 8.8625 12.8 8.95469 12.8 9.0625V12.8C12.8 13.2422 13.1594 13.6 13.6 13.6C14.0406 13.6 14.4 13.2422 14.4 12.8V7.8C14.4 6.5875 13.4125 5.6 12.2 5.6H8.2Z"
        fill="black" />
</svg>