<svg width="20" height="20" viewBox="0 0 20 20" fill="none" xmlns="http://www.w3.org/2000/svg">
<path d="M10.1215 4.2C9.1111 4.2 8.29221 5.01888 8.29221 6.02927C8.29221 7.03965 9.1111 7.85853 10.1215 7.85853C11.1319 7.85853 11.9508 7.03965 11.9508 6.02927C11.9508 5.01888 11.1319 4.2 10.1215 4.2ZM9.52554 8.59024C9.04679 8.59024 8.62377 8.80461 8.3308 9.13616L5.25248 11.9787C4.93379 12.2745 4.91378 12.7733 5.20961 13.0934C5.50401 13.4121 6.00277 13.4321 6.32289 13.1363L7.92636 11.6557V13.8951L7.62768 18.2239C7.59052 18.7527 8.00925 19.2 8.53802 19.2C9.0182 19.2 9.4155 18.8284 9.44837 18.3497L9.66702 15.1756H10.5759L10.7946 18.3497C10.8275 18.8284 11.2248 19.2 11.7049 19.2C12.2337 19.2 12.6524 18.7527 12.6153 18.2239L12.3166 13.8908V11.6557L13.9201 13.1363C14.2402 13.4321 14.739 13.4121 15.0334 13.0934C15.3292 12.7733 15.3092 12.2745 14.9905 11.9787L11.9122 9.13616C11.6192 8.80461 11.1962 8.59024 10.7174 8.59024H9.52554Z" fill="currentColor"/>
</svg>
